<svg width="32" height="33" viewBox="0 0 32 33" fill="none" xmlns="http://www.w3.org/2000/svg">
<path fill-rule="evenodd" clip-rule="evenodd" d="M16.0132 0.766632C7.15833 0.766632 0 7.97774 0 16.8989C0 24.03 4.58659 30.0663 10.9494 32.2028C11.7449 32.3634 12.0363 31.8557 12.0363 31.4286C12.0363 31.0546 12.0101 29.7726 12.0101 28.4369C7.5556 29.3986 6.62799 26.5139 6.62799 26.5139C5.91212 24.6442 4.85143 24.1637 4.85143 24.1637C3.39348 23.1755 4.95763 23.1755 4.95763 23.1755C6.57489 23.2823 7.4235 24.8314 7.4235 24.8314C8.85491 27.2884 11.1615 26.5942 12.0894 26.1668C12.2218 25.1251 12.6463 24.404 13.097 24.0034C9.54422 23.6294 5.80625 22.2406 5.80625 16.044C5.80625 14.2812 6.44214 12.839 7.44973 11.7173C7.29075 11.3168 6.73386 9.66055 7.60903 7.44379C7.60903 7.44379 8.96111 7.01636 12.0098 9.09972C13.315 8.74659 14.6611 8.56695 16.0132 8.56544C17.3653 8.56544 18.7436 8.7526 20.0164 9.09972C23.0654 7.01636 24.4175 7.44379 24.4175 7.44379C25.2926 9.66055 24.7354 11.3168 24.5764 11.7173C25.6106 12.839 26.2202 14.2812 26.2202 16.044C26.2202 22.2406 22.4823 23.6026 18.9029 24.0034C19.4864 24.5108 19.9898 25.4722 19.9898 26.9947C19.9898 29.1581 19.9636 30.8943 19.9636 31.4282C19.9636 31.8557 20.2553 32.3634 21.0505 32.2031C27.4133 30.066 31.9999 24.03 31.9999 16.8989C32.0261 7.97774 24.8416 0.766632 16.0132 0.766632Z" fill="white"/>
</svg>
