<svg width="31" height="21" viewBox="0 0 31 21" fill="none" xmlns="http://www.w3.org/2000/svg">
<path d="M24.0428 11.6977C22.8936 11.8313 21.9381 11.7622 21.9381 11.7622V4.22207H23.4049C24.3603 4.22207 25.2542 4.62367 25.8882 5.42636C26.3327 5.96149 26.6546 6.69464 26.6541 7.7649C26.6541 10.2319 25.4432 11.2326 24.0428 11.6982V11.6977ZM30.2251 6.42708C29.7806 4.08854 28.6313 2.62223 27.3589 1.75504C26.0864 0.818818 24.5542 0.352722 23.0263 0.352722L1.09907 0.351715C0.332723 0.351715 0.0156967 1.15441 0.0156967 1.5555V1.82306C0.0156967 1.82306 -0.0463619 11.9688 0.0763115 17.443C0.265373 20.6483 3.32547 20.6483 3.32547 20.6483C3.32547 20.6483 13.3289 20.6488 18.1723 20.5848C18.4278 20.5848 18.6168 20.5848 18.8723 20.5203C21.611 19.7871 21.8665 17.117 21.8665 15.6457C27.3531 15.9037 31.2411 11.8318 30.2246 6.42657L30.2251 6.42708Z" fill="white"/>
<path d="M10.9033 16.4676C11.0452 16.4973 11.1684 16.3683 11.1684 16.3683C11.1684 16.3683 14.6735 13.0296 16.2673 11.0977C17.6672 9.36378 17.7336 6.49062 15.3735 5.4254C12.9517 4.35514 10.9745 6.69318 10.9745 6.69318C9.25277 4.69174 6.642 4.82527 5.43114 6.15805C4.22028 7.49083 4.66479 9.76437 5.55862 11.0971C6.33892 12.2319 10.2505 15.9178 10.7374 16.3784C10.7845 16.4227 10.8413 16.4575 10.9028 16.4676H10.9033Z" fill="url(#paint0_linear_6_157)"/>
<defs>
<linearGradient id="paint0_linear_6_157" x1="7.50167" y1="-2.70431" x2="11.9835" y2="10.427" gradientUnits="userSpaceOnUse">
<stop stop-color="#FF4EA3"/>
<stop offset="1" stop-color="#FF5E5B"/>
</linearGradient>
</defs>
</svg>
