<svg width="32" height="33" viewBox="0 0 32 33" fill="none" xmlns="http://www.w3.org/2000/svg">
<path d="M7.44878 10.7947H1.02472C0.739614 10.7947 0.508595 11.0258 0.508595 11.3108V31.9486C0.508595 32.2337 0.739614 32.4647 1.02472 32.4647H7.44878C7.73388 32.4647 7.9649 32.2337 7.9649 31.9486V11.3108C7.9649 11.0258 7.73388 10.7947 7.44878 10.7947Z" fill="white"/>
<path d="M4.23907 0.535187C1.90163 0.535187 0 2.43475 0 4.76961C0 7.10551 1.90163 9.00579 4.23907 9.00579C6.57466 9.00579 8.47474 7.10541 8.47474 4.76961C8.47484 2.43475 6.57466 0.535187 4.23907 0.535187Z" fill="white"/>
<path d="M23.7888 10.2818C21.2087 10.2818 19.3014 11.3909 18.1445 12.6512V11.3108C18.1445 11.0258 17.9135 10.7947 17.6284 10.7947H11.4762C11.1911 10.7947 10.9601 11.0258 10.9601 11.3108V31.9486C10.9601 32.2337 11.1911 32.4647 11.4762 32.4647H17.8862C18.1714 32.4647 18.4024 32.2337 18.4024 31.9486V21.7377C18.4024 18.2968 19.337 16.9563 21.7355 16.9563C24.3478 16.9563 24.5554 19.1053 24.5554 21.9147V31.9487C24.5554 32.2338 24.7864 32.4648 25.0715 32.4648H31.4839C31.769 32.4648 32 32.2338 32 31.9487V20.6285C32 15.5121 31.0244 10.2818 23.7888 10.2818Z" fill="white"/>
</svg>
